# xmcd CD database file
#
# Track frame offsets:
#	150
#	15291
#	30716
#	44706
#	60008
#	77139
#	90676
#	106982
#	125359
#	139274
#	158873
#	172099
#
# Disc length: 2477 seconds
#
# Revision: 0
# Processed by: cddbd v1.5.2PL0 Copyright (c) Steve Scherf et al.
# Submitted via: CDex 1.51
#
DISCID=9409ab0c
DTITLE=Reza - Moonless
DYEAR=2010
DGENRE=Country
TTITLE0=Why?
TTITLE1=Child
TTITLE2=Rain
TTITLE3=Desert Land (feat. H.Burns)
TTITLE4=The Letter
TTITLE5=Falling from Grace
TTITLE6=Back Home
TTITLE7=Boozer's Talk II
TTITLE8=Grey Window
TTITLE9=Waiting
TTITLE10=Gone for Good
TTITLE11=The House Near the Airport
EXTD=YEAR: 2010
EXTT0=
EXTT1=
EXTT2=
EXTT3=
EXTT4=
EXTT5=
EXTT6=
EXTT7=
EXTT8=
EXTT9=
EXTT10=
EXTT11=
PLAYORDER=
